<svg id="Capa_1" xmlns="http://www.w3.org/2000/svg" viewBox="0 0 512 512"><style>.st0{fill:#333}.st1{fill:#fff}</style><path class="st0" d="M482.4 226.4c0 14.5-1.4 28.8-4 42.6-.6 3.2-1.3 6.4-2 9.5C456.6 362 390.5 429 304.2 447.7L256 512l-48.2-64.3C121.5 429 55.4 362 35.7 278.5c-.6-2.4-1.1-4.9-1.6-7.3-2.9-14.5-4.5-29.5-4.5-44.8 0-60.5 23.5-117.3 66.3-160.1S195.5 0 256 0s117.3 23.5 160.1 66.3 66.3 99.7 66.3 160.1z"/><path class="st1" d="M478.4 269c-.6 3.2-1.3 6.4-2 9.5H35.7c-.6-2.4-1.1-4.9-1.6-7.3v-2.1c1.2 0 2.3-.1 3.5-.1h440.8zM156.3 334c-2.5-.7-4.9-1.3-7.2-2.5-1.8-.9-2-1.6-.5-2.9 1.5-1.3 3-2.5 4.6-3.8.6-.5 1.2-.7 2-.1 2 1.6 4.4 1.5 6.7 1.1 1.7-.3 2.5-1.6 2.5-3.3v-11.2c0-2.9-.1-5.8 0-8.7 0-1.3-.5-1.7-1.7-1.7-4.2.1-8.4 0-12.6.1-1.5 0-2.1-.5-2.1-2 .1-6.1-.8-5.1 5-5.2 6.9-.1 13.8 0 20.8 0 1.7 0 2.3.5 2.3 2.3 0 7 .1 14.1.3 21.1 0 2.1.1 4.2-.1 6.4-.6 5.7-5.3 9.2-10.3 10.1l-1.5.3h-8.2zM170.7 130.8h14.7c2.2 0 2.4.3 1.3 2.3-6.6 11.4-13.2 22.9-19.8 34.3-5.3 9.1-10.5 18.2-15.8 27.3-8 13.9-16 27.8-24 41.6-3.3 5.7-6.7 11.4-10 17.2-.6 1-1.3 1.4-2.4 1.4-10 0-20-.1-30-.1-2.4 0-2.4-.1-1.3-2.1 6.9-11.9 13.7-23.9 20.6-35.8 5.3-9.1 10.6-18.1 15.8-27.2 4.6-7.9 9.1-16 13.7-23.9 5.2-9 10.4-18 15.7-27 1.3-2.2 2.6-4.3 3.7-6.5.6-1.2 1.4-1.5 2.7-1.5h15.1zM355.9 130.8h14.8c2.2 0 2.4.4 1.4 2.3-4.6 8-9.3 16-13.9 24-4.9 8.4-9.7 16.8-14.5 25.2-4.6 7.9-9.2 15.9-13.8 23.8-4.5 7.7-8.9 15.5-13.4 23.2-4.3 7.4-8.5 14.8-12.8 22.1-1 1.7-1.5 1.8-2.4.1-5.1-8.7-10.1-17.4-15.1-26.1-.6-1.1-.4-2 .1-2.9 3.7-6.4 7.5-12.7 11.2-19.1 4.5-7.7 8.9-15.5 13.4-23.3 4.1-7.2 8.3-14.4 12.5-21.6 4.9-8.6 9.9-17.1 14.8-25.7.9-1.6 1.9-2.2 3.7-2.1 4.6.2 9.3.1 14 .1zM230.6 221.3h-15.4c-2.2 0-2.3-.2-1.2-2.1 5-8.7 10-17.3 15-25.9 4.8-8.2 9.5-16.5 14.3-24.7 5.1-8.7 10.2-17.5 15.2-26.2 2-3.5 4-6.9 6-10.4.6-1.1 1-1.1 1.6 0 4.2 7.2 8.4 14.3 12.6 21.5 1 1.7 1.9 3.3 2.9 4.9.7 1.1.7 2 0 3.2-6.2 11-12.3 22-18.5 33-4.8 8.6-9.6 17.1-14.4 25.7-.6 1-1.4 1.2-2.5 1.2-5.1-.2-10.3-.2-15.6-.2zM322.5 254.7h-14.8c-2.4 0-2.7-.3-1.5-2.4 3.3-5.6 6.6-11.2 9.8-16.9 4.6-7.9 9.1-15.8 13.6-23.7 6.4-11.2 12.9-22.3 19.4-33.5 3.2-5.5 6.3-11 9.4-16.5.2-.4.5-.8.7-1.2.9-1.2 1.3-1.2 2.1.2 5 8.7 10.1 17.4 15.2 26 .8 1.3 1 2.4.1 3.8-3.3 5.4-6.4 10.9-9.5 16.4-1.1 2-1.3 2-2.5 0s-2.4-4-3.5-6c-.7-1.4-1.2-1-1.8 0-2.7 4.7-5.4 9.5-8.2 14.2-3.1 5.3-6.1 10.6-9.2 15.8-.9 1.5-.4 1.8 1 1.9 2.2.1 4.4.1 6.6.1 2.4 0 2.4 0 1.3 2.1-3.5 6.1-7 12.1-10.4 18.1-.6 1.1-1.4 1.5-2.7 1.5-4.9.1-10 .1-15.1.1zM136.8 254.7H122c-2.4 0-2.6-.2-1.4-2.2 5-8.6 10-17.3 15-25.9 6.4-11.1 12.8-22.2 19.2-33.4 5.9-10.2 11.8-20.4 17.8-30.6.7-1.3 1.3-1.3 2.1-.1l16.2 24.6c.7 1.1.9 2 .2 3.3-3.3 5.5-6.4 11.2-9.7 16.7-1 1.8-1.3 1.7-2.4 0-1.2-2.1-2.5-4.2-3.7-6.3-.7-1.3-1.1-.8-1.6 0-2.8 4.8-5.6 9.6-8.4 14.5-3 5.1-5.9 10.3-8.9 15.4-1 1.8-.9 2.2 1.2 2.3 2.1 0 4.3 0 6.5-.1.6 0 1.2-.2 1.6.4.4.6-.2 1-.4 1.4-3 5.3-6.3 10.5-9 15.9-1.7 3.5-3.9 4.4-7.5 4.1-4-.2-8 0-12 0zM108.4 160.3H84.3c-.5 0-1.1.2-1.4-.4-.2-.5.2-.8.5-1.2 4.2-7.2 8.3-14.5 12.5-21.7.9-1.6 1.8-3.1 2.7-4.7.6-1.1 1.4-1.4 2.6-1.4h47.6c2 0 2.2.3 1.2 2-5 8.7-10.1 17.4-15 26.1-.6 1.1-1.5 1.3-2.6 1.3a960 960 0 0 0-24 0c0-.1 0 0 0 0zM200 160.2h-23.7c-2.3 0-2.4-.2-1.3-2.1 5-8.7 10.1-17.4 15.1-26.1.5-.9 1.2-1.3 2.2-1.3h48c1.7 0 1.9.5 1.1 2-5 8.6-10 17.3-14.9 26-.6 1.1-1.5 1.4-2.7 1.4-8 .1-15.9.1-23.8.1zM174.1 254.7h-14.7c-2.6 0-2.7-.2-1.4-2.3 3.3-5.7 6.5-11.4 9.8-17.1.9-1.5 1.8-2.4 3.8-2.3 6.1.1 12.2 0 18.3 0 1.1 0 2.8.4 3.3-.5s-.7-2-1.3-3c-3.1-5.4-6.3-10.9-9.4-16.3-.5-.9-.9-1.7-.3-2.7 3.4-5.8 6.8-11.6 10.2-17.5.8-1.5 1.4-1 2 .1 5.1 8.8 10.2 17.7 15.4 26.5.5.9.4 1.7-.1 2.6-5.5 9.5-11.2 18.9-16.4 28.5-1.8 3.2-3.7 4.4-7.3 4.1-4-.3-8-.1-11.9-.1zM359.6 254.7h-15c-2 0-2.2-.3-1.1-2.1 3.5-6 7-12.1 10.4-18.1.6-1.1 1.3-1.5 2.6-1.5 7 .1 14.1 0 21.1 0 1.7 0 1.9-.2 1-1.8-3.4-6-6.8-12-10.3-18-.7-1.3-.8-2.2 0-3.5 3.3-5.5 6.5-11.1 9.7-16.7.9-1.5 1.4-1.4 2.2.1 5.1 8.8 10.1 17.6 15.2 26.4.5.9.5 1.6 0 2.4-5.9 10.2-11.9 20.5-17.8 30.8-.9 1.5-1.9 2-3.7 2h-14.3zM211.7 254.7h-16c-.6 0-1.4.2-1.7-.5-.3-.6.3-1.1.6-1.6l15.9-27.6c.7-1.3 1.6-1.8 3-1.8h31c2.1 0 2.3.3 1.3 2.2-5.2 9.4-10.5 18.7-15.7 28.1-.5 1-1.3 1.2-2.3 1.2h-16.1zM397.7 254.8h-15.5c-2.6 0-2.7-.2-1.4-2.5 2.3-4.1 4.8-8.3 7.1-12.4 2.7-4.7 5.5-9.4 8.2-14.2 1-1.7 2.1-2.5 4.1-2.5 10 .1 20 0 30 0 2.4 0 2.6.3 1.4 2.4-5 8.9-10 17.8-14.9 26.8-.8 1.5-1.8 2.3-3.7 2.2-5.1.1-10.2.2-15.3.2zM300.8 192.2c-.4.8-.7 1.6-1.2 2.3-4.9 8.4-9.8 16.9-14.7 25.3-.9 1.5-1.1 1.5-2 0-5-8.9-9.9-17.9-14.9-26.8-.6-1.1-.5-1.8 0-2.9 3.5-6.1 7-12.2 10.4-18.3 1.4-2.4 2.7-4.9 4-7.3 1.1-1.9 1.4-1.9 2.5-.1 5.2 8.9 10.3 17.8 15.4 26.7.3.4.4.7.5 1.1zM211.3 306.9v-11.5c0-1.3.4-1.7 1.7-1.7 2.8.1 5.6.1 8.4 0 1.4-.1 1.7.5 1.7 1.7-.1 3.7 0 7.4.2 11.2.1 1.4.5 1.9 2 1.9 6.3-.1 12.6-.1 18.8 0 1.5 0 1.9-.6 1.9-2l-.3-10.8c-.1-1.5.5-2.1 2-2 2.6.1 5.1.1 7.7 0 1.7-.1 2.3.5 2.3 2.2 0 5.2.1 10.4 0 15.5-.1 6.5.7 12.9.6 19.3 0 2.4-.1 2.5-2.4 2.5h-7.3c-1.4 0-2.1-.4-2.2-1.9-.4-4.3-.2-8.6-.2-12.9 0-1.7-.5-2.4-2.3-2.3-6.1.1-12.2.1-18.3 0-1.5 0-2.1.4-2 2 .2 4.2-.1 8.5.2 12.7.2 2.1-.1 2.4-2.3 2.4-2.5 0-5-.1-7.5 0-1.6.1-2.1-.6-2.1-2.2.1-8.1 0-16.2 0-24.2-.3.1-.4.1-.6.1zM319.5 331c-2.5-4.1-5.1-8.2-7.6-12.3-5-8.1-9.9-16.3-14.9-24.4-.7-1.1-1.5-1.7-2.8-1.6-1.5.1-3 .1-4.5 0-1.7-.2-2.7.6-3.5 2-1.4 2.5-2.9 5-4.4 7.5-5.8 9.7-11.6 19.5-17.3 29.2-.9 1.5-.7 1.8 1.1 1.8h8.9c1.3 0 2.1-.5 2.7-1.5.9-1.6 1.9-3.2 2.8-4.8.7-1.2 1.5-1.7 3-1.7 5.7.1 11.4.2 17.1 0 2.5-.1 3.8.8 4.9 2.9 3 5.3 3 5.2 9.1 5.2h4.2c.7 0 1.5.2 1.9-.5.2-.7-.4-1.2-.7-1.8zm-22-13.1h-11.3c-1 0-1.1-.4-.6-1.1 2-3.6 4.1-7.3 6.3-11.3 2.3 4 4.4 7.6 6.5 11.2.5 1 .1 1.2-.9 1.2zM347 300.9h-20c-1.4 0-1.8-.5-1.8-1.8-.2-5.4-.2-5.3 5.2-5.4 11.4 0 22.8 0 34.2-.1h.9c.4.1 1-.1 1.2.4.2.5-.3.8-.6 1.2-3.8 4.6-7.5 9.1-11.3 13.7-4.2 5.1-8.5 10.3-12.7 15.5-.3.3-.8.7-.5 1.2.2.5.8.2 1.3.3 7.5 0 15 .1 22.5 0 1.8 0 2.5.6 2.5 2.3.1 6.1.5 5-4.7 5.1-12.9.1-25.7 0-38.6 0h-1.7c-1.1-.1-1.4-.4-.6-1.4 2.4-3 4.8-5.9 7.3-8.9l10.8-13.2c2.3-2.8 4.6-5.6 7-8.4-.2-.2-.3-.3-.4-.5zM199.5 308.3c.1 7.3.1 14.5.7 21.8.2 3.1.1 3.2-3.1 3.2-2.3 0-4.5-.1-6.8 0-1.6.1-2.3-.5-2.3-2.2.1-3 0-5.9 0-8.9-.1-8.7-.2-17.4-.4-26.1 0-2.3.1-2.3 2.3-2.3h7.8c1.3 0 1.7.5 1.7 1.7.1 4.2.1 8.5.1 12.8z"/></svg>